<svg id="svg" version="1.1" xmlns="http://www.w3.org/2000/svg" xmlns:xlink="http://www.w3.org/1999/xlink" width="400" height="400" viewBox="0, 0, 400,400"><g id="svgg"><path id="path0" d="M221.294 109.198 C 221.020 109.637,220.124 110.312,219.303 110.698 C 218.459 111.096,217.748 111.748,217.665 112.201 C 217.491 113.162,216.051 114.800,215.380 114.800 C 215.116 114.800,214.796 115.319,214.669 115.953 C 214.542 116.588,213.707 117.952,212.814 118.984 C 211.920 120.017,210.924 121.374,210.600 121.999 C 210.277 122.625,209.469 123.523,208.806 123.996 C 208.143 124.468,207.600 125.168,207.600 125.552 C 207.600 126.403,206.176 128.000,205.416 128.000 C 205.112 128.000,204.748 128.527,204.606 129.171 C 204.465 129.815,203.724 131.005,202.961 131.814 C 202.197 132.624,201.221 133.975,200.791 134.817 C 200.362 135.658,199.603 136.626,199.105 136.968 C 198.607 137.309,197.840 138.266,197.400 139.094 C 196.960 139.922,196.195 140.778,195.700 140.995 C 195.204 141.212,194.615 141.949,194.390 142.632 C 194.164 143.315,193.542 144.254,193.007 144.719 C 192.472 145.184,191.684 146.248,191.256 147.083 C 190.828 147.917,189.916 149.140,189.229 149.800 C 188.541 150.460,187.728 151.573,187.421 152.273 C 187.114 152.974,186.309 153.833,185.632 154.184 C 184.852 154.587,184.400 155.127,184.400 155.656 C 184.400 156.116,183.789 157.056,183.042 157.746 C 182.294 158.436,181.411 159.657,181.078 160.461 C 180.746 161.264,179.926 162.327,179.256 162.822 C 178.586 163.317,177.764 164.408,177.428 165.246 C 177.063 166.158,176.346 167.014,175.643 167.378 C 174.871 167.777,174.372 168.416,174.192 169.235 C 174.024 170.000,173.489 170.730,172.811 171.119 C 172.203 171.469,171.499 172.325,171.247 173.022 C 170.994 173.719,170.201 174.899,169.483 175.645 C 168.765 176.390,167.680 177.855,167.072 178.900 C 166.464 179.945,165.702 180.800,165.380 180.800 C 165.057 180.800,164.508 181.513,164.159 182.385 C 163.811 183.257,163.179 184.080,162.756 184.214 C 162.333 184.348,161.711 185.120,161.374 185.929 C 161.037 186.738,160.160 188.030,159.425 188.800 C 158.690 189.570,157.815 190.740,157.481 191.400 C 157.148 192.060,156.228 193.170,155.437 193.866 C 154.647 194.562,154.000 195.408,154.000 195.746 C 154.000 196.083,153.382 196.831,152.626 197.408 C 151.838 198.008,151.140 198.962,150.991 199.641 C 150.848 200.294,150.298 201.110,149.770 201.456 C 149.242 201.802,148.248 203.067,147.562 204.266 C 146.876 205.465,145.959 206.661,145.524 206.923 C 145.089 207.185,144.386 208.072,143.962 208.894 C 143.537 209.716,142.759 210.670,142.233 211.015 C 141.707 211.360,141.155 212.128,141.007 212.721 C 140.859 213.314,140.476 214.090,140.157 214.445 C 139.642 215.016,139.708 215.231,140.730 216.325 L 141.884 217.560 166.733 217.680 L 191.582 217.800 192.646 218.864 C 194.472 220.690,194.324 226.750,192.345 231.200 C 191.747 232.545,191.399 234.819,190.967 240.200 C 190.404 247.217,190.241 248.051,188.764 251.418 C 188.271 252.543,187.918 255.008,187.606 259.517 C 187.143 266.192,186.401 270.094,185.380 271.222 C 184.972 271.673,184.607 274.031,184.172 279.034 C 182.971 292.863,182.985 291.850,183.990 292.113 C 185.144 292.415,186.000 292.071,186.000 291.304 C 186.000 290.969,186.622 290.108,187.381 289.392 C 188.141 288.675,188.875 287.642,189.012 287.095 C 189.149 286.547,189.947 285.342,190.785 284.416 C 191.623 283.490,192.625 282.032,193.011 281.175 C 193.397 280.319,194.061 279.507,194.487 279.373 C 194.912 279.238,195.582 278.376,195.975 277.458 C 196.369 276.540,196.999 275.533,197.377 275.219 C 197.754 274.906,198.492 273.802,199.018 272.765 C 199.543 271.727,200.431 270.519,200.991 270.079 C 201.550 269.639,202.277 268.634,202.606 267.847 C 202.935 267.060,203.644 266.127,204.182 265.775 C 204.720 265.423,205.354 264.545,205.592 263.825 C 205.829 263.105,206.622 261.815,207.353 260.958 C 208.084 260.101,208.983 258.817,209.350 258.104 C 209.716 257.391,210.454 256.521,210.988 256.171 C 211.522 255.821,212.171 254.895,212.429 254.113 C 212.687 253.330,213.465 252.130,214.157 251.445 C 214.849 250.760,215.753 249.439,216.165 248.509 C 216.577 247.579,217.322 246.550,217.821 246.223 C 218.320 245.896,218.926 245.030,219.167 244.299 C 219.409 243.567,220.100 242.676,220.703 242.318 C 221.419 241.894,222.048 240.965,222.513 239.645 C 222.974 238.334,223.697 237.261,224.565 236.600 C 225.356 235.996,226.003 235.085,226.145 234.374 C 226.297 233.614,226.819 232.923,227.561 232.497 C 228.289 232.079,228.824 231.378,228.969 230.654 C 229.098 230.012,229.915 228.714,230.785 227.770 C 231.655 226.826,232.635 225.412,232.963 224.628 C 233.290 223.844,234.009 222.997,234.560 222.746 C 235.170 222.467,235.663 221.825,235.822 221.100 C 235.966 220.445,236.694 219.235,237.440 218.409 C 238.186 217.583,239.068 216.257,239.400 215.462 C 239.732 214.666,240.454 213.721,241.004 213.360 C 241.555 213.000,242.347 211.932,242.765 210.987 C 243.183 210.042,243.894 209.071,244.346 208.829 C 244.798 208.587,245.544 207.537,246.004 206.495 C 246.464 205.453,247.352 204.060,247.976 203.400 C 248.601 202.740,249.234 201.795,249.383 201.300 C 249.532 200.805,250.250 199.945,250.979 199.389 C 251.708 198.833,252.403 197.884,252.524 197.279 C 252.645 196.675,253.396 195.509,254.193 194.688 C 254.990 193.867,255.901 192.578,256.216 191.823 C 256.532 191.068,257.312 189.944,257.950 189.325 C 259.362 187.955,259.895 185.143,258.899 184.316 C 258.415 183.914,253.358 183.756,236.000 183.600 C 218.795 183.446,213.582 183.284,213.109 182.891 C 212.068 182.026,211.981 180.188,212.605 172.196 C 213.181 164.818,213.556 162.900,214.950 160.185 C 215.366 159.375,215.715 156.855,215.998 152.627 C 216.466 145.640,216.769 143.877,217.968 141.165 C 218.580 139.783,218.879 137.795,219.201 132.987 C 219.617 126.769,220.323 123.086,221.439 121.317 C 222.218 120.083,222.822 112.557,222.328 110.242 C 221.873 108.107,221.936 108.171,221.294 109.198 " stroke="none" fill="#f9fafc" fill-rule="evenodd"></path><path id="path1" d="M15.240 0.800 C 15.204 1.704,15.036 1.800,13.500 1.800 L 11.800 1.800 11.800 3.500 L 11.800 5.200 10.100 5.200 C 9.165 5.200,8.400 5.337,8.400 5.505 C 8.400 5.673,7.995 5.988,7.500 6.205 C 7.005 6.422,6.422 7.005,6.205 7.500 C 5.988 7.995,5.673 8.400,5.505 8.400 C 5.337 8.400,5.200 9.165,5.200 10.100 L 5.200 11.800 3.500 11.800 L 1.800 11.800 1.800 13.500 C 1.800 15.036,1.704 15.204,0.800 15.240 L -0.200 15.280 0.800 15.600 C 1.759 15.907,1.763 15.922,0.900 15.960 L 0.000 16.000 0.000 200.400 L 0.000 384.800 0.900 384.800 C 1.692 384.800,1.800 385.003,1.800 386.500 L 1.800 388.200 3.500 388.323 C 5.192 388.445,5.200 388.454,5.200 390.023 C 5.200 390.890,5.337 391.600,5.505 391.600 C 5.673 391.600,5.988 392.005,6.205 392.500 C 6.422 392.995,7.005 393.578,7.500 393.795 C 7.995 394.012,8.400 394.327,8.400 394.495 C 8.400 394.663,9.165 394.800,10.100 394.800 L 11.800 394.800 11.800 396.500 L 11.800 398.200 13.500 398.323 C 14.931 398.427,15.206 398.585,15.240 399.323 C 15.277 400.140,15.302 400.132,15.600 399.200 C 15.907 398.241,15.922 398.237,15.960 399.100 L 16.000 400.000 200.400 400.000 C 382.714 400.000,384.800 399.991,384.800 399.223 C 384.800 398.595,385.126 398.422,386.500 398.323 C 388.192 398.201,388.201 398.192,388.323 396.500 C 388.445 394.808,388.454 394.800,390.023 394.800 C 390.890 394.800,391.600 394.663,391.600 394.495 C 391.600 394.327,392.005 394.012,392.500 393.795 C 392.995 393.578,393.578 392.995,393.795 392.500 C 394.012 392.005,394.327 391.600,394.495 391.600 C 394.663 391.600,394.800 390.890,394.800 390.023 C 394.800 388.454,394.808 388.445,396.500 388.323 C 398.192 388.201,398.201 388.192,398.323 386.500 C 398.422 385.126,398.595 384.800,399.223 384.800 C 399.991 384.800,400.000 382.714,400.000 200.400 L 400.000 16.000 399.100 15.960 C 398.237 15.922,398.241 15.907,399.200 15.600 C 400.132 15.302,400.140 15.277,399.323 15.240 C 398.585 15.206,398.427 14.931,398.323 13.500 L 398.200 11.800 396.500 11.800 L 394.800 11.800 394.800 10.100 C 394.800 9.165,394.663 8.400,394.495 8.400 C 394.327 8.400,394.012 7.995,393.795 7.500 C 393.578 7.005,392.995 6.422,392.500 6.205 C 392.005 5.988,391.600 5.673,391.600 5.505 C 391.600 5.337,390.890 5.200,390.023 5.200 C 388.454 5.200,388.445 5.192,388.323 3.500 L 388.200 1.800 386.500 1.800 C 385.003 1.800,384.800 1.692,384.800 0.900 L 384.800 0.000 200.400 0.000 L 16.000 0.000 15.960 0.900 C 15.922 1.763,15.907 1.759,15.600 0.800 L 15.280 -0.200 15.240 0.800 M222.716 106.256 C 223.717 106.524,224.800 108.267,224.800 109.609 C 224.800 110.075,225.079 110.736,225.419 111.076 C 225.978 111.635,225.977 111.762,225.416 112.382 C 224.953 112.894,224.645 114.976,224.209 120.547 C 223.610 128.208,223.178 130.651,222.146 132.227 C 221.745 132.838,221.380 135.481,221.003 140.490 C 220.464 147.660,220.308 148.452,218.778 151.800 C 218.244 152.967,217.929 155.189,217.612 160.005 C 217.156 166.941,216.495 170.390,215.388 171.614 C 214.887 172.167,214.709 173.215,214.662 175.873 L 214.600 179.400 236.200 179.600 C 260.616 179.826,258.573 179.539,261.902 183.208 L 263.603 185.083 262.643 186.499 C 262.115 187.277,261.555 188.494,261.400 189.202 C 261.244 189.910,260.460 191.213,259.658 192.097 C 258.856 192.981,257.840 194.446,257.400 195.352 C 256.960 196.259,256.195 197.178,255.700 197.395 C 255.194 197.617,254.604 198.405,254.352 199.195 C 254.106 199.968,253.406 201.140,252.796 201.800 C 252.185 202.460,251.309 203.753,250.848 204.674 C 250.388 205.594,249.612 206.626,249.125 206.968 C 248.637 207.309,247.870 208.356,247.419 209.294 C 246.969 210.232,246.213 211.170,245.740 211.378 C 245.234 211.600,244.686 212.403,244.408 213.330 C 244.149 214.196,243.328 215.532,242.585 216.297 C 241.841 217.063,241.041 218.271,240.806 218.983 C 240.571 219.694,239.927 220.518,239.375 220.814 C 238.823 221.109,238.035 222.110,237.624 223.038 C 237.214 223.967,236.349 225.279,235.703 225.955 C 235.057 226.631,234.204 227.904,233.808 228.783 C 233.411 229.663,232.763 230.485,232.368 230.610 C 231.973 230.736,231.442 231.466,231.189 232.234 C 230.936 233.001,230.212 234.011,229.582 234.477 C 228.951 234.943,228.242 235.878,228.006 236.554 C 227.434 238.196,225.911 240.394,225.343 240.397 C 225.092 240.399,224.602 241.113,224.253 241.985 C 223.904 242.856,223.176 243.859,222.635 244.214 C 222.093 244.569,221.538 245.373,221.400 246.000 C 221.262 246.628,220.523 247.806,219.758 248.617 C 218.993 249.428,217.939 250.936,217.417 251.967 C 216.895 252.998,216.028 254.041,215.490 254.286 C 214.880 254.564,214.422 255.191,214.268 255.958 C 214.133 256.633,213.558 257.589,212.990 258.083 C 212.422 258.577,211.600 259.788,211.165 260.773 C 210.729 261.759,209.814 263.031,209.133 263.599 C 208.452 264.168,207.693 265.254,207.447 266.012 C 207.183 266.826,206.577 267.593,205.966 267.885 C 205.289 268.209,204.767 268.934,204.452 269.985 C 204.187 270.868,203.336 272.206,202.560 272.960 C 201.784 273.713,201.015 274.841,200.850 275.465 C 200.685 276.089,199.995 276.960,199.317 277.400 C 198.566 277.887,197.908 278.775,197.634 279.671 C 197.388 280.479,196.647 281.595,195.988 282.149 C 195.329 282.703,194.454 283.942,194.042 284.901 C 193.631 285.861,192.845 286.940,192.296 287.300 C 191.747 287.660,191.171 288.459,191.016 289.077 C 190.528 291.023,186.634 294.400,184.882 294.398 C 182.553 294.394,180.451 293.649,179.749 292.578 C 178.600 290.825,179.901 281.847,181.602 279.798 C 181.825 279.529,182.274 275.910,182.600 271.755 C 183.232 263.705,183.414 262.716,184.743 260.112 C 185.436 258.753,185.669 257.233,186.009 251.844 C 186.404 245.589,186.662 244.191,188.183 240.060 C 188.566 239.020,188.981 235.884,189.214 232.260 C 189.430 228.927,189.874 225.316,190.203 224.236 C 190.949 221.782,190.948 221.758,190.100 221.343 C 189.715 221.154,178.117 220.910,164.326 220.800 L 139.252 220.600 138.065 219.463 C 135.822 217.314,135.672 213.958,137.757 212.592 C 138.303 212.234,138.866 211.412,139.007 210.766 C 139.150 210.118,139.847 209.147,140.561 208.603 C 141.273 208.059,142.278 206.714,142.794 205.613 C 143.309 204.513,144.071 203.504,144.487 203.372 C 144.903 203.240,145.629 202.338,146.100 201.368 C 146.572 200.398,147.299 199.496,147.715 199.363 C 148.132 199.231,148.742 198.479,149.071 197.692 C 149.400 196.905,150.086 195.933,150.595 195.532 C 151.105 195.132,152.067 193.837,152.734 192.655 C 153.401 191.473,154.221 190.401,154.555 190.272 C 154.890 190.144,155.534 189.313,155.987 188.425 C 156.440 187.538,157.249 186.524,157.785 186.173 C 158.321 185.822,158.959 184.930,159.203 184.190 C 159.484 183.340,160.064 182.662,160.784 182.343 C 161.544 182.006,162.063 181.369,162.349 180.420 C 162.585 179.639,163.592 178.152,164.589 177.115 C 165.585 176.078,166.400 174.962,166.400 174.635 C 166.400 174.308,167.018 173.569,167.774 172.992 C 168.542 172.407,169.260 171.436,169.401 170.794 C 169.566 170.043,170.057 169.465,170.816 169.129 C 171.524 168.815,172.065 168.213,172.204 167.583 C 172.328 167.016,173.207 165.663,174.155 164.576 C 175.104 163.489,176.179 162.020,176.544 161.312 C 176.910 160.603,177.567 159.832,178.005 159.597 C 178.443 159.363,179.062 158.548,179.380 157.786 C 179.698 157.025,180.413 156.195,180.968 155.942 C 181.534 155.684,182.161 154.923,182.398 154.207 C 182.629 153.506,183.371 152.407,184.047 151.766 C 184.722 151.125,185.692 149.790,186.203 148.800 C 186.714 147.810,187.505 146.775,187.961 146.500 C 188.416 146.225,189.048 145.382,189.363 144.627 C 189.688 143.849,190.472 142.977,191.168 142.616 C 191.952 142.211,192.400 141.673,192.400 141.137 C 192.400 140.674,193.009 139.720,193.753 139.019 C 194.497 138.317,195.407 137.160,195.775 136.447 C 196.144 135.735,197.036 134.488,197.757 133.676 C 198.479 132.864,199.407 131.615,199.821 130.899 C 200.235 130.184,200.891 129.498,201.279 129.375 C 201.667 129.252,202.330 128.370,202.752 127.415 C 203.174 126.460,203.887 125.563,204.335 125.421 C 204.784 125.278,205.346 124.570,205.584 123.848 C 205.823 123.125,206.527 122.008,207.148 121.367 C 207.770 120.725,208.753 119.443,209.333 118.517 C 209.914 117.592,210.744 116.644,211.178 116.412 C 211.612 116.180,212.322 115.188,212.755 114.210 C 213.293 112.993,213.854 112.352,214.527 112.182 C 215.215 112.010,215.585 111.574,215.752 110.741 C 216.019 109.403,218.854 106.532,220.161 106.274 C 221.543 106.002,221.761 106.000,222.716 106.256 " stroke="none" fill="#047cfc" fill-rule="evenodd"></path><path id="path2" d="M219.478 109.003 C 218.447 109.790,217.335 110.953,217.007 111.586 C 216.680 112.219,215.869 113.123,215.206 113.596 C 214.543 114.068,214.000 114.698,214.000 114.995 C 214.000 115.292,213.190 116.484,212.200 117.643 C 211.210 118.803,210.400 119.910,210.400 120.103 C 210.400 120.296,209.771 121.116,209.003 121.927 C 208.234 122.737,207.325 123.987,206.982 124.704 C 206.639 125.422,205.908 126.304,205.359 126.664 C 204.809 127.024,204.074 127.877,203.725 128.559 C 203.376 129.242,202.531 130.457,201.845 131.260 C 201.160 132.063,199.700 134.020,198.600 135.609 C 197.500 137.197,196.038 139.060,195.351 139.748 C 194.663 140.437,193.799 141.594,193.430 142.321 C 193.060 143.047,192.491 143.744,192.164 143.869 C 191.838 143.994,191.283 144.660,190.931 145.348 C 190.579 146.037,189.693 147.267,188.963 148.082 C 188.232 148.897,187.277 150.265,186.840 151.121 C 186.404 151.977,185.595 152.973,185.044 153.334 C 184.493 153.696,183.734 154.640,183.358 155.432 C 182.982 156.225,182.423 156.970,182.117 157.087 C 181.811 157.205,180.932 158.223,180.165 159.350 C 176.833 164.246,175.940 165.469,174.869 166.600 C 174.243 167.260,173.432 168.289,173.066 168.886 C 172.700 169.483,172.035 170.383,171.588 170.886 C 169.682 173.030,168.072 175.135,166.837 177.100 C 166.111 178.255,165.363 179.200,165.175 179.200 C 164.987 179.200,164.382 179.971,163.830 180.912 C 163.278 181.854,162.281 183.148,161.613 183.787 C 160.946 184.427,160.400 185.152,160.400 185.400 C 160.400 185.648,159.844 186.379,159.163 187.025 C 158.483 187.671,157.591 188.852,157.182 189.648 C 156.772 190.445,155.708 191.855,154.818 192.781 C 153.928 193.707,153.200 194.655,153.200 194.888 C 153.200 195.120,152.525 196.067,151.700 196.991 C 150.875 197.915,149.570 199.522,148.800 200.563 C 148.030 201.604,146.665 203.394,145.766 204.541 C 144.867 205.688,143.800 207.160,143.394 207.813 C 142.988 208.466,142.456 209.180,142.212 209.400 C 141.967 209.620,141.245 210.520,140.606 211.400 C 139.968 212.280,139.035 213.455,138.533 214.011 C 137.621 215.022,137.621 215.022,138.391 216.289 C 140.122 219.136,138.605 218.978,166.317 219.200 L 191.270 219.400 192.193 220.474 C 193.149 221.585,192.933 224.754,191.682 228.000 C 191.470 228.550,191.088 230.710,190.833 232.800 C 189.979 239.791,189.513 242.574,188.556 246.400 C 188.033 248.490,187.335 252.810,187.004 256.000 C 186.369 262.111,185.720 265.933,185.203 266.600 C 184.691 267.262,184.060 270.810,183.597 275.640 C 183.067 281.178,182.533 284.403,181.744 286.839 C 180.611 290.336,181.074 292.064,183.332 292.762 L 185.263 293.360 186.745 291.780 C 188.771 289.619,191.644 285.761,193.002 283.377 C 193.622 282.290,194.550 280.988,195.064 280.484 C 195.579 279.980,196.359 278.864,196.797 278.005 C 197.236 277.146,197.830 276.298,198.117 276.121 C 198.405 275.945,199.116 274.976,199.697 273.968 C 200.278 272.961,201.048 271.892,201.408 271.593 C 201.768 271.295,202.500 270.187,203.034 269.132 C 203.569 268.077,204.448 266.925,204.987 266.571 C 205.527 266.218,206.087 265.540,206.231 265.064 C 206.375 264.589,207.170 263.300,207.997 262.200 C 208.824 261.100,209.950 259.480,210.498 258.600 C 211.047 257.720,211.880 256.657,212.348 256.238 C 212.817 255.819,213.200 255.220,213.200 254.907 C 213.200 254.594,213.748 253.790,214.418 253.121 C 215.088 252.451,216.058 251.069,216.575 250.051 C 217.091 249.033,217.912 247.840,218.399 247.400 C 218.887 246.960,219.607 245.970,220.000 245.200 C 220.393 244.430,221.113 243.440,221.600 243.000 C 222.087 242.560,222.850 241.480,223.295 240.600 C 223.741 239.720,224.712 238.324,225.453 237.499 C 226.194 236.673,226.800 235.795,226.800 235.547 C 226.800 235.300,227.350 234.445,228.022 233.649 C 230.415 230.813,231.996 228.568,233.188 226.315 C 233.853 225.058,234.734 223.850,235.146 223.629 C 235.558 223.408,236.205 222.575,236.584 221.778 C 236.962 220.981,237.622 219.978,238.050 219.550 C 238.477 219.123,239.496 217.771,240.314 216.547 C 241.131 215.323,242.292 213.587,242.893 212.690 C 243.495 211.794,244.441 210.506,244.995 209.830 C 245.550 209.153,247.023 207.070,248.268 205.200 C 249.514 203.330,251.133 201.061,251.866 200.159 C 252.600 199.256,253.200 198.325,253.200 198.090 C 253.200 197.854,253.704 197.153,254.320 196.531 C 254.937 195.909,256.030 194.365,256.750 193.100 C 257.470 191.835,258.192 190.800,258.356 190.800 C 260.235 190.800,261.209 184.854,259.535 183.600 L 258.200 182.600 236.443 182.400 L 214.686 182.200 213.899 181.145 C 212.581 179.380,213.266 170.399,215.170 164.478 C 215.616 163.091,216.266 159.221,216.615 155.878 C 216.964 152.535,217.679 148.090,218.203 146.000 C 218.727 143.910,219.346 140.715,219.578 138.900 C 219.810 137.085,220.190 134.123,220.423 132.317 C 220.655 130.511,221.269 127.406,221.785 125.417 C 223.107 120.329,223.850 111.526,223.136 109.405 C 222.440 107.335,221.760 107.260,219.478 109.003 M222.328 110.242 C 222.822 112.557,222.218 120.083,221.439 121.317 C 220.323 123.086,219.617 126.769,219.201 132.987 C 218.879 137.795,218.580 139.783,217.968 141.165 C 216.769 143.877,216.466 145.640,215.998 152.627 C 215.715 156.855,215.366 159.375,214.950 160.185 C 213.556 162.900,213.181 164.818,212.605 172.196 C 211.981 180.188,212.068 182.026,213.109 182.891 C 213.582 183.284,218.795 183.446,236.000 183.600 C 253.358 183.756,258.415 183.914,258.899 184.316 C 259.895 185.143,259.362 187.955,257.950 189.325 C 257.312 189.944,256.532 191.068,256.216 191.823 C 255.901 192.578,254.990 193.867,254.193 194.688 C 253.396 195.509,252.645 196.675,252.524 197.279 C 252.403 197.884,251.708 198.833,250.979 199.389 C 250.250 199.945,249.532 200.805,249.383 201.300 C 249.234 201.795,248.601 202.740,247.976 203.400 C 247.352 204.060,246.464 205.453,246.004 206.495 C 245.544 207.537,244.798 208.587,244.346 208.829 C 243.894 209.071,243.183 210.042,242.765 210.987 C 242.347 211.932,241.555 213.000,241.004 213.360 C 240.454 213.721,239.732 214.666,239.400 215.462 C 239.068 216.257,238.186 217.583,237.440 218.409 C 236.694 219.235,235.966 220.445,235.822 221.100 C 235.663 221.825,235.170 222.467,234.560 222.746 C 234.009 222.997,233.290 223.844,232.963 224.628 C 232.635 225.412,231.655 226.826,230.785 227.770 C 229.915 228.714,229.098 230.012,228.969 230.654 C 228.824 231.378,228.289 232.079,227.561 232.497 C 226.819 232.923,226.297 233.614,226.145 234.374 C 226.003 235.085,225.356 235.996,224.565 236.600 C 223.697 237.261,222.974 238.334,222.513 239.645 C 222.048 240.965,221.419 241.894,220.703 242.318 C 220.100 242.676,219.409 243.567,219.167 244.299 C 218.926 245.030,218.320 245.896,217.821 246.223 C 217.322 246.550,216.577 247.579,216.165 248.509 C 215.753 249.439,214.849 250.760,214.157 251.445 C 213.465 252.130,212.687 253.330,212.429 254.113 C 212.171 254.895,211.522 255.821,210.988 256.171 C 210.454 256.521,209.716 257.391,209.350 258.104 C 208.983 258.817,208.084 260.101,207.353 260.958 C 206.622 261.815,205.829 263.105,205.592 263.825 C 205.354 264.545,204.720 265.423,204.182 265.775 C 203.644 266.127,202.935 267.060,202.606 267.847 C 202.277 268.634,201.550 269.639,200.991 270.079 C 200.431 270.519,199.543 271.727,199.018 272.765 C 198.492 273.802,197.754 274.906,197.377 275.219 C 196.999 275.533,196.369 276.540,195.975 277.458 C 195.582 278.376,194.912 279.238,194.487 279.373 C 194.061 279.507,193.397 280.319,193.011 281.175 C 192.625 282.032,191.623 283.490,190.785 284.416 C 189.947 285.342,189.149 286.547,189.012 287.095 C 188.875 287.642,188.141 288.675,187.381 289.392 C 186.622 290.108,186.000 290.969,186.000 291.304 C 186.000 292.071,185.144 292.415,183.990 292.113 C 182.985 291.850,182.971 292.863,184.172 279.034 C 184.607 274.031,184.972 271.673,185.380 271.222 C 186.401 270.094,187.143 266.192,187.606 259.517 C 187.918 255.008,188.271 252.543,188.764 251.418 C 190.241 248.051,190.404 247.217,190.967 240.200 C 191.399 234.819,191.747 232.545,192.345 231.200 C 194.324 226.750,194.472 220.690,192.646 218.864 L 191.582 217.800 166.733 217.680 L 141.884 217.560 140.730 216.325 C 139.708 215.231,139.642 215.016,140.157 214.445 C 140.476 214.090,140.859 213.314,141.007 212.721 C 141.155 212.128,141.707 211.360,142.233 211.015 C 142.759 210.670,143.537 209.716,143.962 208.894 C 144.386 208.072,145.089 207.185,145.524 206.923 C 145.959 206.661,146.876 205.465,147.562 204.266 C 148.248 203.067,149.242 201.802,149.770 201.456 C 150.298 201.110,150.848 200.294,150.991 199.641 C 151.140 198.962,151.838 198.008,152.626 197.408 C 153.382 196.831,154.000 196.083,154.000 195.746 C 154.000 195.408,154.647 194.562,155.437 193.866 C 156.228 193.170,157.148 192.060,157.481 191.400 C 157.815 190.740,158.690 189.570,159.425 188.800 C 160.160 188.030,161.037 186.738,161.374 185.929 C 161.711 185.120,162.333 184.348,162.756 184.214 C 163.179 184.080,163.811 183.257,164.159 182.385 C 164.508 181.513,165.057 180.800,165.380 180.800 C 165.702 180.800,166.464 179.945,167.072 178.900 C 167.680 177.855,168.765 176.390,169.483 175.645 C 170.201 174.899,170.994 173.719,171.247 173.022 C 171.499 172.325,172.203 171.469,172.811 171.119 C 173.489 170.730,174.024 170.000,174.192 169.235 C 174.372 168.416,174.871 167.777,175.643 167.378 C 176.346 167.014,177.063 166.158,177.428 165.246 C 177.764 164.408,178.586 163.317,179.256 162.822 C 179.926 162.327,180.746 161.264,181.078 160.461 C 181.411 159.657,182.294 158.436,183.042 157.746 C 183.789 157.056,184.400 156.116,184.400 155.656 C 184.400 155.127,184.852 154.587,185.632 154.184 C 186.309 153.833,187.114 152.974,187.421 152.273 C 187.728 151.573,188.541 150.460,189.229 149.800 C 189.916 149.140,190.828 147.917,191.256 147.083 C 191.684 146.248,192.472 145.184,193.007 144.719 C 193.542 144.254,194.164 143.315,194.390 142.632 C 194.615 141.949,195.204 141.212,195.700 140.995 C 196.195 140.778,196.960 139.922,197.400 139.094 C 197.840 138.266,198.607 137.309,199.105 136.968 C 199.603 136.626,200.362 135.658,200.791 134.817 C 201.221 133.975,202.197 132.624,202.961 131.814 C 203.724 131.005,204.465 129.815,204.606 129.171 C 204.748 128.527,205.112 128.000,205.416 128.000 C 206.176 128.000,207.600 126.403,207.600 125.552 C 207.600 125.168,208.143 124.468,208.806 123.996 C 209.469 123.523,210.277 122.625,210.600 121.999 C 210.924 121.374,211.920 120.017,212.814 118.984 C 213.707 117.952,214.542 116.588,214.669 115.953 C 214.796 115.319,215.116 114.800,215.380 114.800 C 216.051 114.800,217.491 113.162,217.665 112.201 C 217.748 111.748,218.459 111.096,219.303 110.698 C 220.124 110.312,221.020 109.637,221.294 109.198 C 221.936 108.171,221.873 108.107,222.328 110.242 " stroke="none" fill="#a4ccfc" fill-rule="evenodd"></path><path id="path3" d="M219.818 108.071 C 218.797 108.748,217.655 109.743,217.280 110.284 C 216.906 110.824,215.880 112.147,215.000 113.223 C 214.120 114.298,212.770 115.988,212.000 116.976 C 211.230 117.965,210.285 119.167,209.900 119.648 C 209.515 120.129,209.200 120.662,209.200 120.833 C 209.200 121.003,208.570 121.811,207.800 122.627 C 207.030 123.444,206.400 124.336,206.400 124.610 C 206.400 124.884,205.755 125.735,204.967 126.501 C 204.179 127.266,203.234 128.343,202.867 128.893 C 201.523 130.911,196.032 138.223,195.278 139.000 C 194.851 139.440,193.934 140.610,193.240 141.600 C 192.546 142.590,191.086 144.480,189.996 145.800 C 188.907 147.120,187.530 149.010,186.938 150.000 C 186.345 150.990,185.434 152.160,184.912 152.600 C 184.391 153.040,183.568 154.064,183.082 154.875 C 182.597 155.686,181.057 157.732,179.659 159.421 C 178.261 161.111,176.740 163.147,176.278 163.947 C 175.815 164.746,175.199 165.547,174.907 165.726 C 174.615 165.906,173.927 166.765,173.377 167.636 C 172.334 169.289,171.562 170.267,169.161 172.976 C 168.370 173.869,167.218 175.471,166.603 176.535 C 165.987 177.599,165.247 178.561,164.958 178.671 C 164.670 178.782,163.974 179.657,163.412 180.616 C 162.850 181.575,161.935 182.864,161.380 183.480 C 159.007 186.112,157.289 188.304,156.435 189.790 C 155.932 190.665,155.176 191.622,154.755 191.917 C 154.334 192.212,153.639 193.140,153.210 193.980 C 152.782 194.820,151.929 196.046,151.315 196.704 C 149.499 198.652,147.421 201.296,146.446 202.900 C 145.945 203.725,145.377 204.400,145.184 204.400 C 144.991 204.400,144.340 205.255,143.737 206.300 C 143.133 207.345,142.046 208.920,141.321 209.800 C 136.698 215.411,136.726 215.335,138.489 217.600 C 140.056 219.614,139.495 219.571,164.525 219.586 C 194.508 219.604,193.220 219.321,191.660 225.550 C 190.909 228.548,190.180 233.042,189.380 239.600 C 189.259 240.590,188.734 243.110,188.213 245.200 C 187.693 247.290,186.965 251.880,186.597 255.400 C 186.229 258.920,185.585 262.779,185.168 263.974 C 184.207 266.724,183.734 269.410,183.189 275.200 C 182.951 277.730,182.316 281.659,181.778 283.932 C 180.054 291.216,180.427 292.744,184.094 293.414 C 185.719 293.711,187.937 291.931,189.910 288.750 C 190.370 288.008,191.104 287.018,191.541 286.552 C 191.978 286.085,192.898 284.706,193.585 283.488 C 194.273 282.269,195.090 281.174,195.402 281.055 C 195.713 280.935,196.430 279.974,196.995 278.919 C 197.942 277.148,199.280 275.250,201.728 272.200 C 202.258 271.540,203.063 270.280,203.518 269.400 C 203.973 268.520,204.897 267.290,205.573 266.666 C 206.248 266.042,206.800 265.307,206.800 265.032 C 206.800 264.756,207.700 263.410,208.800 262.039 C 209.900 260.668,210.800 259.356,210.800 259.122 C 210.800 258.888,211.430 258.000,212.200 257.147 C 212.970 256.295,213.600 255.362,213.600 255.074 C 213.600 254.785,214.157 254.021,214.837 253.375 C 215.518 252.729,216.513 251.390,217.048 250.400 C 218.015 248.613,219.683 246.285,221.923 243.600 C 222.565 242.830,223.410 241.570,223.801 240.800 C 224.192 240.030,224.963 238.950,225.514 238.400 C 226.066 237.850,226.857 236.641,227.272 235.712 C 227.687 234.784,228.269 233.884,228.566 233.712 C 228.863 233.541,229.705 232.500,230.438 231.400 C 231.171 230.300,232.010 229.155,232.301 228.856 C 232.593 228.556,233.266 227.454,233.797 226.406 C 234.328 225.357,235.032 224.397,235.361 224.270 C 235.689 224.144,236.265 223.447,236.640 222.722 C 237.016 221.996,238.189 220.232,239.248 218.801 C 240.306 217.371,241.719 215.462,242.386 214.561 C 243.054 213.659,243.600 212.708,243.600 212.448 C 243.600 212.187,244.227 211.346,244.993 210.580 C 245.759 209.814,246.686 208.605,247.052 207.894 C 247.418 207.182,248.299 205.880,249.009 205.000 C 249.719 204.120,250.597 202.815,250.960 202.100 C 251.324 201.385,251.793 200.800,252.004 200.800 C 252.214 200.800,252.839 199.906,253.393 198.814 C 253.946 197.722,254.728 196.652,255.131 196.437 C 255.534 196.221,256.335 195.135,256.912 194.024 C 257.489 192.912,258.505 191.324,259.171 190.496 C 261.779 187.251,261.948 184.667,259.665 182.921 L 258.200 181.800 236.503 181.687 L 214.807 181.574 214.203 180.407 C 213.241 178.545,213.986 168.463,215.194 167.008 C 215.792 166.287,216.317 163.355,216.976 157.059 C 217.318 153.791,218.035 149.291,218.569 147.059 C 219.558 142.931,219.993 140.335,220.815 133.667 C 221.068 131.614,221.619 128.734,222.040 127.267 C 222.738 124.830,224.113 114.147,224.070 111.486 C 224.009 107.631,222.415 106.351,219.818 108.071 M223.136 109.405 C 223.850 111.526,223.107 120.329,221.785 125.417 C 221.269 127.406,220.655 130.511,220.423 132.317 C 220.190 134.123,219.810 137.085,219.578 138.900 C 219.346 140.715,218.727 143.910,218.203 146.000 C 217.679 148.090,216.964 152.535,216.615 155.878 C 216.266 159.221,215.616 163.091,215.170 164.478 C 213.266 170.399,212.581 179.380,213.899 181.145 L 214.686 182.200 236.443 182.400 L 258.200 182.600 259.535 183.600 C 261.209 184.854,260.235 190.800,258.356 190.800 C 258.192 190.800,257.470 191.835,256.750 193.100 C 256.030 194.365,254.937 195.909,254.320 196.531 C 253.704 197.153,253.200 197.854,253.200 198.090 C 253.200 198.325,252.600 199.256,251.866 200.159 C 251.133 201.061,249.514 203.330,248.268 205.200 C 247.023 207.070,245.550 209.153,244.995 209.830 C 244.441 210.506,243.495 211.794,242.893 212.690 C 242.292 213.587,241.131 215.323,240.314 216.547 C 239.496 217.771,238.477 219.123,238.050 219.550 C 237.622 219.978,236.962 220.981,236.584 221.778 C 236.205 222.575,235.558 223.408,235.146 223.629 C 234.734 223.850,233.853 225.058,233.188 226.315 C 231.996 228.568,230.415 230.813,228.022 233.649 C 227.350 234.445,226.800 235.300,226.800 235.547 C 226.800 235.795,226.194 236.673,225.453 237.499 C 224.712 238.324,223.741 239.720,223.295 240.600 C 222.850 241.480,222.087 242.560,221.600 243.000 C 221.113 243.440,220.393 244.430,220.000 245.200 C 219.607 245.970,218.887 246.960,218.399 247.400 C 217.912 247.840,217.091 249.033,216.575 250.051 C 216.058 251.069,215.088 252.451,214.418 253.121 C 213.748 253.790,213.200 254.594,213.200 254.907 C 213.200 255.220,212.817 255.819,212.348 256.238 C 211.880 256.657,211.047 257.720,210.498 258.600 C 209.950 259.480,208.824 261.100,207.997 262.200 C 207.170 263.300,206.375 264.589,206.231 265.064 C 206.087 265.540,205.527 266.218,204.987 266.571 C 204.448 266.925,203.569 268.077,203.034 269.132 C 202.500 270.187,201.768 271.295,201.408 271.593 C 201.048 271.892,200.278 272.961,199.697 273.968 C 199.116 274.976,198.405 275.945,198.117 276.121 C 197.830 276.298,197.236 277.146,196.797 278.005 C 196.359 278.864,195.579 279.980,195.064 280.484 C 194.550 280.988,193.622 282.290,193.002 283.377 C 191.644 285.761,188.771 289.619,186.745 291.780 L 185.263 293.360 183.332 292.762 C 181.074 292.064,180.611 290.336,181.744 286.839 C 182.533 284.403,183.067 281.178,183.597 275.640 C 184.060 270.810,184.691 267.262,185.203 266.600 C 185.720 265.933,186.369 262.111,187.004 256.000 C 187.335 252.810,188.033 248.490,188.556 246.400 C 189.513 242.574,189.979 239.791,190.833 232.800 C 191.088 230.710,191.470 228.550,191.682 228.000 C 192.933 224.754,193.149 221.585,192.193 220.474 L 191.270 219.400 166.317 219.200 C 138.605 218.978,140.122 219.136,138.391 216.289 C 137.621 215.022,137.621 215.022,138.533 214.011 C 139.035 213.455,139.968 212.280,140.606 211.400 C 141.245 210.520,141.967 209.620,142.212 209.400 C 142.456 209.180,142.988 208.466,143.394 207.813 C 143.800 207.160,144.867 205.688,145.766 204.541 C 146.665 203.394,148.030 201.604,148.800 200.563 C 149.570 199.522,150.875 197.915,151.700 196.991 C 152.525 196.067,153.200 195.120,153.200 194.888 C 153.200 194.655,153.928 193.707,154.818 192.781 C 155.708 191.855,156.772 190.445,157.182 189.648 C 157.591 188.852,158.483 187.671,159.163 187.025 C 159.844 186.379,160.400 185.648,160.400 185.400 C 160.400 185.152,160.946 184.427,161.613 183.787 C 162.281 183.148,163.278 181.854,163.830 180.912 C 164.382 179.971,164.987 179.200,165.175 179.200 C 165.363 179.200,166.111 178.255,166.837 177.100 C 168.072 175.135,169.682 173.030,171.588 170.886 C 172.035 170.383,172.700 169.483,173.066 168.886 C 173.432 168.289,174.243 167.260,174.869 166.600 C 175.940 165.469,176.833 164.246,180.165 159.350 C 180.932 158.223,181.811 157.205,182.117 157.087 C 182.423 156.970,182.982 156.225,183.358 155.432 C 183.734 154.640,184.493 153.696,185.044 153.334 C 185.595 152.973,186.404 151.977,186.840 151.121 C 187.277 150.265,188.232 148.897,188.963 148.082 C 189.693 147.267,190.579 146.037,190.931 145.348 C 191.283 144.660,191.838 143.994,192.164 143.869 C 192.491 143.744,193.060 143.047,193.430 142.321 C 193.799 141.594,194.663 140.437,195.351 139.748 C 196.038 139.060,197.500 137.197,198.600 135.609 C 199.700 134.020,201.160 132.063,201.845 131.260 C 202.531 130.457,203.376 129.242,203.725 128.559 C 204.074 127.877,204.809 127.024,205.359 126.664 C 205.908 126.304,206.639 125.422,206.982 124.704 C 207.325 123.987,208.234 122.737,209.003 121.927 C 209.771 121.116,210.400 120.296,210.400 120.103 C 210.400 119.910,211.210 118.803,212.200 117.643 C 213.190 116.484,214.000 115.292,214.000 114.995 C 214.000 114.698,214.543 114.068,215.206 113.596 C 215.869 113.123,216.680 112.219,217.007 111.586 C 217.735 110.178,221.119 107.526,221.977 107.691 C 222.319 107.757,222.841 108.528,223.136 109.405 " stroke="none" fill="#74bcfc" fill-rule="evenodd"></path><path id="path4" d="M220.161 106.274 C 218.854 106.532,216.019 109.403,215.752 110.741 C 215.585 111.574,215.215 112.010,214.527 112.182 C 213.854 112.352,213.293 112.993,212.755 114.210 C 212.322 115.188,211.612 116.180,211.178 116.412 C 210.744 116.644,209.914 117.592,209.333 118.517 C 208.753 119.443,207.770 120.725,207.148 121.367 C 206.527 122.008,205.823 123.125,205.584 123.848 C 205.346 124.570,204.784 125.278,204.335 125.421 C 203.887 125.563,203.174 126.460,202.752 127.415 C 202.330 128.370,201.667 129.252,201.279 129.375 C 200.891 129.498,200.235 130.184,199.821 130.899 C 199.407 131.615,198.479 132.864,197.757 133.676 C 197.036 134.488,196.144 135.735,195.775 136.447 C 195.407 137.160,194.497 138.317,193.753 139.019 C 193.009 139.720,192.400 140.674,192.400 141.137 C 192.400 141.673,191.952 142.211,191.168 142.616 C 190.472 142.977,189.688 143.849,189.363 144.627 C 189.048 145.382,188.416 146.225,187.961 146.500 C 187.505 146.775,186.714 147.810,186.203 148.800 C 185.692 149.790,184.722 151.125,184.047 151.766 C 183.371 152.407,182.629 153.506,182.398 154.207 C 182.161 154.923,181.534 155.684,180.968 155.942 C 180.413 156.195,179.698 157.025,179.380 157.786 C 179.062 158.548,178.443 159.363,178.005 159.597 C 177.567 159.832,176.910 160.603,176.544 161.312 C 176.179 162.020,175.104 163.489,174.155 164.576 C 173.207 165.663,172.328 167.016,172.204 167.583 C 172.065 168.213,171.524 168.815,170.816 169.129 C 170.057 169.465,169.566 170.043,169.401 170.794 C 169.260 171.436,168.542 172.407,167.774 172.992 C 167.018 173.569,166.400 174.308,166.400 174.635 C 166.400 174.962,165.585 176.078,164.589 177.115 C 163.592 178.152,162.585 179.639,162.349 180.420 C 162.063 181.369,161.544 182.006,160.784 182.343 C 160.064 182.662,159.484 183.340,159.203 184.190 C 158.959 184.930,158.321 185.822,157.785 186.173 C 157.249 186.524,156.440 187.538,155.987 188.425 C 155.534 189.313,154.890 190.144,154.555 190.272 C 154.221 190.401,153.401 191.473,152.734 192.655 C 152.067 193.837,151.105 195.132,150.595 195.532 C 150.086 195.933,149.400 196.905,149.071 197.692 C 148.742 198.479,148.132 199.231,147.715 199.363 C 147.299 199.496,146.572 200.398,146.100 201.368 C 145.629 202.338,144.903 203.240,144.487 203.372 C 144.071 203.504,143.309 204.513,142.794 205.613 C 142.278 206.714,141.273 208.059,140.561 208.603 C 139.847 209.147,139.150 210.118,139.007 210.766 C 138.866 211.412,138.303 212.234,137.757 212.592 C 135.672 213.958,135.822 217.314,138.065 219.463 L 139.252 220.600 164.326 220.800 C 178.117 220.910,189.715 221.154,190.100 221.343 C 190.948 221.758,190.949 221.782,190.203 224.236 C 189.874 225.316,189.430 228.927,189.214 232.260 C 188.981 235.884,188.566 239.020,188.183 240.060 C 186.662 244.191,186.404 245.589,186.009 251.844 C 185.669 257.233,185.436 258.753,184.743 260.112 C 183.414 262.716,183.232 263.705,182.600 271.755 C 182.274 275.910,181.825 279.529,181.602 279.798 C 179.901 281.847,178.600 290.825,179.749 292.578 C 180.451 293.649,182.553 294.394,184.882 294.398 C 186.634 294.400,190.528 291.023,191.016 289.077 C 191.171 288.459,191.747 287.660,192.296 287.300 C 192.845 286.940,193.631 285.861,194.042 284.901 C 194.454 283.942,195.329 282.703,195.988 282.149 C 196.647 281.595,197.388 280.479,197.634 279.671 C 197.908 278.775,198.566 277.887,199.317 277.400 C 199.995 276.960,200.685 276.089,200.850 275.465 C 201.015 274.841,201.784 273.713,202.560 272.960 C 203.336 272.206,204.187 270.868,204.452 269.985 C 204.767 268.934,205.289 268.209,205.966 267.885 C 206.577 267.593,207.183 266.826,207.447 266.012 C 207.693 265.254,208.452 264.168,209.133 263.599 C 209.814 263.031,210.729 261.759,211.165 260.773 C 211.600 259.788,212.422 258.577,212.990 258.083 C 213.558 257.589,214.133 256.633,214.268 255.958 C 214.422 255.191,214.880 254.564,215.490 254.286 C 216.028 254.041,216.895 252.998,217.417 251.967 C 217.939 250.936,218.993 249.428,219.758 248.617 C 220.523 247.806,221.262 246.628,221.400 246.000 C 221.538 245.373,222.093 244.569,222.635 244.214 C 223.176 243.859,223.904 242.856,224.253 241.985 C 224.602 241.113,225.092 240.399,225.343 240.397 C 225.911 240.394,227.434 238.196,228.006 236.554 C 228.242 235.878,228.951 234.943,229.582 234.477 C 230.212 234.011,230.936 233.001,231.189 232.234 C 231.442 231.466,231.973 230.736,232.368 230.610 C 232.763 230.485,233.411 229.663,233.808 228.783 C 234.204 227.904,235.057 226.631,235.703 225.955 C 236.349 225.279,237.214 223.967,237.624 223.038 C 238.035 222.110,238.823 221.109,239.375 220.814 C 239.927 220.518,240.571 219.694,240.806 218.983 C 241.041 218.271,241.841 217.063,242.585 216.297 C 243.328 215.532,244.149 214.196,244.408 213.330 C 244.686 212.403,245.234 211.600,245.740 211.378 C 246.213 211.170,246.969 210.232,247.419 209.294 C 247.870 208.356,248.637 207.309,249.125 206.968 C 249.612 206.626,250.388 205.594,250.848 204.674 C 251.309 203.753,252.185 202.460,252.796 201.800 C 253.406 201.140,254.106 199.968,254.352 199.195 C 254.604 198.405,255.194 197.617,255.700 197.395 C 256.195 197.178,256.960 196.259,257.400 195.352 C 257.840 194.446,258.856 192.981,259.658 192.097 C 260.460 191.213,261.244 189.910,261.400 189.202 C 261.555 188.494,262.115 187.277,262.643 186.499 L 263.603 185.083 261.902 183.208 C 258.573 179.539,260.616 179.826,236.200 179.600 L 214.600 179.400 214.662 175.873 C 214.709 173.215,214.887 172.167,215.388 171.614 C 216.495 170.390,217.156 166.941,217.612 160.005 C 217.929 155.189,218.244 152.967,218.778 151.800 C 220.308 148.452,220.464 147.660,221.003 140.490 C 221.380 135.481,221.745 132.838,222.146 132.227 C 223.178 130.651,223.610 128.208,224.209 120.547 C 224.645 114.976,224.953 112.894,225.416 112.382 C 225.977 111.762,225.978 111.635,225.419 111.076 C 225.079 110.736,224.800 110.075,224.800 109.609 C 224.800 108.267,223.717 106.524,222.716 106.256 C 221.761 106.000,221.543 106.002,220.161 106.274 M223.627 109.083 C 224.383 111.374,223.415 122.470,222.040 127.267 C 221.619 128.734,221.068 131.614,220.815 133.667 C 219.993 140.335,219.558 142.931,218.569 147.059 C 218.035 149.291,217.318 153.791,216.976 157.059 C 216.317 163.355,215.792 166.287,215.194 167.008 C 213.986 168.463,213.241 178.545,214.203 180.407 L 214.807 181.574 236.503 181.687 L 258.200 181.800 259.665 182.921 C 261.948 184.667,261.779 187.251,259.171 190.496 C 258.505 191.324,257.489 192.912,256.912 194.024 C 256.335 195.135,255.534 196.221,255.131 196.437 C 254.728 196.652,253.946 197.722,253.393 198.814 C 252.839 199.906,252.214 200.800,252.004 200.800 C 251.793 200.800,251.324 201.385,250.960 202.100 C 250.597 202.815,249.719 204.120,249.009 205.000 C 248.299 205.880,247.418 207.182,247.052 207.894 C 246.686 208.605,245.759 209.814,244.993 210.580 C 244.227 211.346,243.600 212.187,243.600 212.448 C 243.600 212.708,243.054 213.659,242.386 214.561 C 241.719 215.462,240.306 217.371,239.248 218.801 C 238.189 220.232,237.016 221.996,236.640 222.722 C 236.265 223.447,235.689 224.144,235.361 224.270 C 235.032 224.397,234.328 225.357,233.797 226.406 C 233.266 227.454,232.593 228.556,232.301 228.856 C 232.010 229.155,231.171 230.300,230.438 231.400 C 229.705 232.500,228.863 233.541,228.566 233.712 C 228.269 233.884,227.687 234.784,227.272 235.712 C 226.857 236.641,226.066 237.850,225.514 238.400 C 224.963 238.950,224.192 240.030,223.801 240.800 C 223.410 241.570,222.565 242.830,221.923 243.600 C 219.683 246.285,218.015 248.613,217.048 250.400 C 216.513 251.390,215.518 252.729,214.837 253.375 C 214.157 254.021,213.600 254.785,213.600 255.074 C 213.600 255.362,212.970 256.295,212.200 257.147 C 211.430 258.000,210.800 258.888,210.800 259.122 C 210.800 259.356,209.900 260.668,208.800 262.039 C 207.700 263.410,206.800 264.756,206.800 265.032 C 206.800 265.307,206.248 266.042,205.573 266.666 C 204.897 267.290,203.973 268.520,203.518 269.400 C 203.063 270.280,202.258 271.540,201.728 272.200 C 199.280 275.250,197.942 277.148,196.995 278.919 C 196.430 279.974,195.713 280.935,195.402 281.055 C 195.090 281.174,194.273 282.269,193.585 283.488 C 192.898 284.706,191.978 286.085,191.541 286.552 C 191.104 287.018,190.370 288.008,189.910 288.750 C 187.937 291.931,185.719 293.711,184.094 293.414 C 180.427 292.744,180.054 291.216,181.778 283.932 C 182.316 281.659,182.951 277.730,183.189 275.200 C 183.734 269.410,184.207 266.724,185.168 263.974 C 185.585 262.779,186.229 258.920,186.597 255.400 C 186.965 251.880,187.693 247.290,188.213 245.200 C 188.734 243.110,189.259 240.590,189.380 239.600 C 190.180 233.042,190.909 228.548,191.660 225.550 C 193.220 219.321,194.508 219.604,164.525 219.586 C 139.495 219.571,140.056 219.614,138.489 217.600 C 136.726 215.335,136.698 215.411,141.321 209.800 C 142.046 208.920,143.133 207.345,143.737 206.300 C 144.340 205.255,144.991 204.400,145.184 204.400 C 145.377 204.400,145.945 203.725,146.446 202.900 C 147.421 201.296,149.499 198.652,151.315 196.704 C 151.929 196.046,152.782 194.820,153.210 193.980 C 153.639 193.140,154.334 192.212,154.755 191.917 C 155.176 191.622,155.932 190.665,156.435 189.790 C 157.289 188.304,159.007 186.112,161.380 183.480 C 161.935 182.864,162.850 181.575,163.412 180.616 C 163.974 179.657,164.670 178.782,164.958 178.671 C 165.247 178.561,165.987 177.599,166.603 176.535 C 167.218 175.471,168.370 173.869,169.161 172.976 C 171.562 170.267,172.334 169.289,173.377 167.636 C 173.927 166.765,174.615 165.906,174.907 165.726 C 175.199 165.547,175.815 164.746,176.278 163.947 C 176.740 163.147,178.261 161.111,179.659 159.421 C 181.057 157.732,182.597 155.686,183.082 154.875 C 183.568 154.064,184.391 153.040,184.912 152.600 C 185.434 152.160,186.345 150.990,186.938 150.000 C 187.530 149.010,188.907 147.120,189.996 145.800 C 191.086 144.480,192.546 142.590,193.240 141.600 C 193.934 140.610,194.851 139.440,195.278 139.000 C 196.032 138.223,201.523 130.911,202.867 128.893 C 203.234 128.343,204.179 127.266,204.967 126.501 C 205.755 125.735,206.400 124.884,206.400 124.610 C 206.400 124.336,207.030 123.444,207.800 122.627 C 208.570 121.811,209.200 121.003,209.200 120.833 C 209.200 120.662,209.515 120.129,209.900 119.648 C 210.285 119.167,211.230 117.965,212.000 116.976 C 212.770 115.988,214.120 114.298,215.000 113.223 C 215.880 112.147,216.906 110.824,217.280 110.284 C 219.548 107.010,222.744 106.405,223.627 109.083 " stroke="none" fill="#60acfc" fill-rule="evenodd"></path></g></svg>
